<svg width="89" height="89" viewBox="0 0 89 89" fill="none" xmlns="http://www.w3.org/2000/svg">
<g clip-path="url(#clip0_16_122)">
<path d="M72.7622 58.5269C70.5875 58.5269 68.5215 59.3786 66.963 60.9191C65.4044 62.4776 64.5345 64.5073 64.5345 66.682C64.5345 68.8568 65.3863 70.8865 66.963 72.445C68.5396 73.9854 70.5875 74.8372 72.7622 74.8372C77.2204 74.8372 80.8449 71.1764 80.8449 66.682C80.8449 62.1876 77.2204 58.5269 72.7622 58.5269ZM72.7622 71.2127C70.2613 71.2127 68.1591 69.1467 68.1591 66.682C68.1591 64.2174 70.2613 62.1514 72.7622 62.1514C75.2269 62.1514 77.2204 64.1811 77.2204 66.682C77.2204 69.183 75.2269 71.2127 72.7622 71.2127Z" fill="#57BF82"/>
<path d="M74.8644 31.3611C74.5382 31.0531 74.1032 30.89 73.6502 30.89H64.3533C63.3565 30.89 62.541 31.7055 62.541 32.7022V47.5627C62.541 48.5595 63.3565 49.375 64.3533 49.375H79.1051C80.1018 49.375 80.9173 48.5595 80.9173 47.5627V37.6134C80.9173 37.106 80.6998 36.6167 80.3193 36.2724L74.8644 31.3611ZM77.2928 45.7505H66.1655V34.4964H72.9434L77.2928 38.4108V45.7505Z" fill="#57BF82"/>
<path d="M28.5068 58.5269C26.3321 58.5269 24.2661 59.3786 22.7076 60.9191C21.1491 62.4776 20.2792 64.5073 20.2792 66.682C20.2792 68.8568 21.1309 70.8865 22.7076 72.445C24.2843 73.9854 26.3321 74.8372 28.5068 74.8372C32.965 74.8372 36.5895 71.1764 36.5895 66.682C36.5895 62.1876 32.965 58.5269 28.5068 58.5269ZM28.5068 71.2127C26.0059 71.2127 23.9037 69.1467 23.9037 66.682C23.9037 64.2174 26.0059 62.1514 28.5068 62.1514C30.9715 62.1514 32.965 64.1811 32.965 66.682C32.965 69.183 30.9715 71.2127 28.5068 71.2127Z" fill="#57BF82"/>
<path d="M16.4191 60.756H12.7764V55.9354C12.7764 54.9386 11.9609 54.1231 10.9642 54.1231C9.96743 54.1231 9.15192 54.9386 9.15192 55.9354V62.5682C9.15192 63.565 9.96743 64.3805 10.9642 64.3805H16.4191C17.4158 64.3805 18.2313 63.565 18.2313 62.5682C18.2313 61.5715 17.4158 60.756 16.4191 60.756Z" fill="#57BF82"/>
<path d="M25.6072 50.8792C25.6072 49.8824 24.7917 49.0669 23.795 49.0669H1.81226C0.815516 49.0669 0 49.8824 0 50.8792C0 51.8759 0.815516 52.6914 1.81226 52.6914H23.795C24.7917 52.6914 25.6072 51.894 25.6072 50.8792Z" fill="#57BF82"/>
<path d="M5.49115 44.3369L27.4738 44.4638C28.4706 44.4638 29.2861 43.6664 29.3042 42.6696C29.3223 41.6548 28.5068 40.8393 27.5101 40.8393L5.52739 40.7124C5.50927 40.7124 5.50927 40.7124 5.50927 40.7124C4.51253 40.7124 3.69701 41.5098 3.69701 42.5065C3.67889 43.5214 4.49441 44.3369 5.49115 44.3369Z" fill="#57BF82"/>
<path d="M9.18817 36.1093H31.1709C32.1676 36.1093 32.9831 35.2937 32.9831 34.297C32.9831 33.3003 32.1676 32.4847 31.1709 32.4847H9.18817C8.19143 32.4847 7.37592 33.3003 7.37592 34.297C7.37592 35.2937 8.19143 36.1093 9.18817 36.1093Z" fill="#57BF82"/>
<path d="M88.3295 33.6627L75.3537 22.916C75.0275 22.6442 74.6288 22.4992 74.1939 22.4992H58.9347V15.9751C58.9347 14.9783 58.1191 14.1628 57.1224 14.1628H10.9642C9.96743 14.1628 9.15192 14.9783 9.15192 15.9751V29.2408C9.15192 30.2375 9.96743 31.0531 10.9642 31.0531C11.9609 31.0531 12.7764 30.2375 12.7764 29.2408V17.7873H55.3283V60.756H40.4677C39.471 60.756 38.6555 61.5715 38.6555 62.5682C38.6555 63.565 39.471 64.3805 40.4677 64.3805H62.5954C63.5922 64.3805 64.4077 63.565 64.4077 62.5682C64.4077 61.5715 63.5922 60.756 62.5954 60.756H58.9528V26.1237H73.5596L85.3755 35.9099L85.2486 60.7197H83.3639C82.3672 60.7197 81.5516 61.5352 81.5516 62.532C81.5516 63.5287 82.3672 64.3442 83.3639 64.3442H87.0428C88.0395 64.3442 88.855 63.5468 88.855 62.5501L89 35.0763C88.9819 34.5326 88.7463 34.007 88.3295 33.6627Z" fill="#57BF82"/>
</g>
<defs>
<clipPath id="clip0_16_122">
<rect width="89" height="89" fill="white"/>
</clipPath>
</defs>
</svg>
